<?xml version="1.0" encoding="UTF-8"?>
<!DOCTYPE svg PUBLIC "-//W3C//DTD SVG 1.1//EN" "http://www.w3.org/Graphics/SVG/1.1/DTD/svg11.dtd">
<!-- Creator: CorelDRAW -->
<svg xmlns="http://www.w3.org/2000/svg" xml:space="preserve" width="122px" height="25px" style="shape-rendering:geometricPrecision; text-rendering:geometricPrecision; image-rendering:optimizeQuality; fill-rule:evenodd; clip-rule:evenodd"
viewBox="0 0 128.532 26.0511"
 xmlns:xlink="http://www.w3.org/1999/xlink">
 <defs>
  <style type="text/css">
   <![CDATA[
    .fil2 {fill:#FEFEFE}
    .fil1 {fill:#D83337}
    .fil0 {fill:#FEFEFE;fill-rule:nonzero}
   ]]>
  </style>
 </defs>
 <g id="Camada_x0020_1">
  <metadata id="CorelCorpID_0Corel-Layer"/>
  <path class="fil0" d="M29.935 4.52022l3.91147 0 0 20.4124 3.7423 0 0 -20.4124 3.91262 0 0 -3.40168 -11.5664 0 0 3.40168zm23.9222 20.4124c-0.181822,-0.436142 -0.294597,-0.883791 -0.346382,-1.3441 -0.04488,-0.459157 -0.0678954,-0.974702 -0.0621416,-1.54779l0 -3.67326c0.00575385,-0.828554 -0.0736493,-1.57655 -0.226702,-2.2463 -0.158806,-0.662843 -0.420031,-1.23593 -0.782523,-1.71235 -0.362492,-0.476419 -0.856173,-0.850419 -1.47414,-1.11049 0.833157,-0.391262 1.44537,-0.98736 1.84814,-1.79175 0.402769,-0.799785 0.600702,-1.81476 0.600702,-3.03918l0 -1.87115c0.00575385,-1.22557 -0.186425,-2.2463 -0.577686,-3.05644 -0.385508,-0.811293 -0.98621,-1.41775 -1.80326,-1.82052 -0.82165,-0.402769 -1.87691,-0.600702 -3.16347,-0.600702l-5.64798 0 0 23.814 3.7423 0 0 -9.69523 1.29231 0c0.567329,-0.00575385 1.03224,0.0955139 1.39013,0.294597 0.362492,0.197932 0.62832,0.521299 0.804388,0.964345 0.170314,0.447649 0.255471,1.03684 0.255471,1.76873l0 3.7423c0,0.482173 0.0115077,0.878037 0.0230154,1.19105 0.0172615,0.310708 0.0391262,0.566179 0.0736493,0.771016 0.0276185,0.197932 0.0621416,0.374 0.107022,0.521299 0.0402769,0.147299 0.085157,0.294597 0.136942,0.441896l3.8102 0zm-6.08987 -20.4124c0.657089,-0.00575385 1.14502,0.193329 1.45112,0.584591 0.306105,0.397016 0.459157,1.02073 0.453403,1.8654l0 2.34757c0,0.629471 -0.08976,1.12775 -0.271582,1.496 -0.181822,0.369397 -0.436142,0.635225 -0.771016,0.794031 -0.334874,0.153052 -0.737643,0.232455 -1.20255,0.226702l-1.46263 0 0 -7.31429 1.80326 0zm15.5193 -3.40168l-5.47766 0 -3.8102 23.814 3.4362 0 0.646733 -4.31999 4.59272 0 0.645582 4.31999 3.77683 0 -3.8102 -23.814zm-2.92641 4.21872l1.80326 12.0428 -3.60536 0 1.80211 -12.0428zm7.55941 19.5953l5.91956 0c1.87115,-0.00575385 3.26588,-0.509791 4.19571,-1.51326 0.924068,-1.00347 1.38323,-2.4615 1.38323,-4.37177l0 -12.044c0,-1.91028 -0.459157,-3.36715 -1.38323,-4.37177 -0.929822,-1.00347 -2.32455,-1.50751 -4.19571,-1.51326l-5.91956 0 0 23.814zm5.85051 -20.4124c0.397016,-0.00575385 0.737643,0.0678954 1.02649,0.222099 0.28424,0.151902 0.499434,0.395865 0.652486,0.736493 0.147299,0.340628 0.226702,0.788277 0.226702,1.35446l0 12.3846c0,0.566179 -0.0794031,1.01498 -0.226702,1.35446 -0.153052,0.340628 -0.368246,0.584591 -0.652486,0.737643 -0.288843,0.153052 -0.629471,0.226702 -1.02649,0.220948l-2.10821 0 0 -17.0107 2.10821 0zm10.8587 0l6.46387 0 0 -3.40168 -10.2062 0 0 23.814 10.2062 0 0 -3.40168 -6.46387 0 0 -6.97482 5.13704 0 0 -3.40168 -5.13704 0 0 -6.63419zm13.3765 -3.40168l-5.51104 0 0 23.814 3.7423 0 0 -8.94723 1.76873 0c1.87115,-0.00575385 3.26588,-0.509791 4.19571,-1.51326 0.924068,-1.00462 1.38323,-2.4615 1.38323,-4.37177l0 -3.09672c0,-1.91028 -0.459157,-3.36715 -1.38323,-4.37177 -0.929822,-1.00347 -2.32455,-1.50751 -4.19571,-1.51326zm0 3.40168c0.397016,-0.00575385 0.73189,0.0632923 1.00347,0.204837 0.277335,0.135791 0.482173,0.374 0.623717,0.70312 0.141545,0.327969 0.20944,0.77677 0.20944,1.33719l0 3.57314c0,0.560425 -0.0678954,1.00923 -0.20944,1.33719 -0.141545,0.32912 -0.346382,0.561576 -0.623717,0.70312 -0.271582,0.142695 -0.606456,0.210591 -1.00347,0.204837l-1.76873 0 0 -8.06344 1.76873 0zm14.2603 -3.40168l-5.47766 0 -3.8102 23.814 3.4362 0 0.646733 -4.31999 4.59272 0 0.645582 4.31999 3.77683 0 -3.8102 -23.814zm-2.92526 4.21872l1.80211 12.0428 -3.60536 0 1.80326 -12.0428zm19.1925 19.5953c-0.180671,-0.436142 -0.294597,-0.883791 -0.345231,-1.3441 -0.0460308,-0.459157 -0.0678954,-0.974702 -0.0621416,-1.54779l0 -3.67326c0.00460308,-0.828554 -0.0748,-1.57655 -0.226702,-2.2463 -0.158806,-0.662843 -0.420031,-1.23593 -0.782523,-1.71235 -0.363643,-0.476419 -0.856173,-0.850419 -1.47529,-1.11049 0.834308,-0.391262 1.44652,-0.98736 1.84929,-1.79175 0.402769,-0.799785 0.600702,-1.81476 0.600702,-3.03918l0 -1.87115c0.00575385,-1.22557 -0.187575,-2.2463 -0.577686,-3.05644 -0.386659,-0.811293 -0.98736,-1.41775 -1.80441,-1.82052 -0.82165,-0.402769 -1.87575,-0.600702 -3.16347,-0.600702l-5.64683 0 0 23.814 3.7423 0 0 -9.69523 1.29231 0c0.567329,-0.00575385 1.03224,0.0955139 1.38898,0.294597 0.363643,0.197932 0.629471,0.521299 0.805539,0.964345 0.170314,0.447649 0.255471,1.03684 0.255471,1.76873l0 3.7423c0,0.482173 0.0103569,0.878037 0.0218646,1.19105 0.0172615,0.310708 0.0402769,0.566179 0.0736493,0.771016 0.0287692,0.197932 0.0632923,0.374 0.108172,0.521299 0.0402769,0.147299 0.085157,0.294597 0.135791,0.441896l3.8102 0zm-6.08872 -20.4124c0.657089,-0.00575385 1.14502,0.193329 1.45112,0.584591 0.306105,0.397016 0.459157,1.02073 0.453403,1.8654l0 2.34757c0,0.629471 -0.0909108,1.12775 -0.272732,1.496 -0.180671,0.369397 -0.436142,0.635225 -0.771016,0.794031 -0.333723,0.153052 -0.736493,0.232455 -1.2014,0.226702l-1.46263 0 0 -7.31429 1.80326 0z"/>
  <rect class="fil1" x="0.000130938" y="0.000318223" width="26.051" height="26.051"/>
  <circle class="fil2" cx="13.0264" cy="5.93982" r="3.79196"/>
  <path class="fil2" d="M13.0267 10.7562c3.47878,0 6.34649,4.23138 6.75042,9.69178 -1.88956,1.91603 -4.27626,2.96553 -6.75042,2.96553 -1.94135,0 -5.152,-1.3441 -6.75157,-2.96553 0.40392,-5.4604 3.27164,-9.69178 6.75157,-9.69178z"/>
  <path class="fil2" d="M6.18309 9.63655c1.15767,0 2.21753,0.6732 3.03803,1.78945 -1.72155,1.38323 -3.02883,3.91377 -3.54207,6.97482 -1.34985,-0.182972 -3.2072,-1.02879 -4.18995,-2.02535 0.280788,-3.79754 2.27392,-6.73891 4.69399,-6.73891z"/>
  <path class="fil2" d="M19.9072 9.7148c-1.15652,0 -2.21638,0.674351 -3.03803,1.7906 1.72155,1.38323 3.02883,3.91377 3.54322,6.97366 1.34985,-0.182972 3.2072,-1.02764 4.18995,-2.02535 -0.280788,-3.79639 -2.27507,-6.73891 -4.69514,-6.73891z"/>
  <circle class="fil2" cx="5.94539" cy="7.08234" r="2.16418"/>
  <circle class="fil2" cx="20.0888" cy="7.08234" r="2.16418"/>
 </g>
</svg>
